<svg width="69" height="59" viewBox="0 0 69 59" xmlns="http://www.w3.org/2000/svg"><title>D8CE4868-B312-4E7A-88EF-650F900734CB</title><g fill="none" fill-rule="evenodd"><path d="M45.208 3.582c-.103 0-.207-.013-.31-.04-2.75-.734-6.442-1.14-10.398-1.14-3.956 0-7.65.406-10.397 1.14-.635.17-1.287-.204-1.458-.832-.172-.628.204-1.275.84-1.445C26.427.48 30.34.047 34.5.047s8.072.432 11.017 1.218c.634.17 1.01.817.84 1.445-.145.526-.625.872-1.15.872z" fill="#9B5A50"/><g fill="#FFC36E"><path d="M23.793 1.225c-.657 0-1.19.528-1.19 1.18v5.89h2.38V2.403c0-.65-.533-1.178-1.19-1.178zM45.207 1.225c-.657 0-1.19.528-1.19 1.18v5.89h2.38V2.403c0-.65-.533-1.178-1.19-1.178z"/></g><path d="M61.862 58.953H7.138c-2.628 0-4.76-2.11-4.76-4.713V31.862h64.243V54.24c0 2.603-2.13 4.713-4.758 4.713z" fill="#915046"/><g fill="#9B5A50"><path d="M33.31 29.505H4.76V54.24c0 1.302 1.064 2.357 2.378 2.357H32.12c.658 0 1.19-.528 1.19-1.18V29.506zM35.69 29.505v25.913c0 .65.532 1.18 1.19 1.18H61.86c1.314 0 2.38-1.056 2.38-2.358V29.505H35.69z"/></g><path d="M61.862 35.397H7.138C3.196 35.397 0 32.232 0 28.327V9.463C0 8.16 1.065 7.106 2.38 7.106h64.24c1.315 0 2.38 1.055 2.38 2.357v18.864c0 3.905-3.196 7.07-7.138 7.07z" fill="#AA6455"/><path d="M61.862 37.754c1.734 0 3.357-.47 4.76-1.276v-2.892c-1.265 1.122-2.93 1.81-4.76 1.81H7.138c-1.83 0-3.495-.688-4.76-1.81v2.892c1.403.806 3.026 1.276 4.76 1.276h54.724z" fill="#874641"/><path d="M36.88 25.97h-4.76c-.656 0-1.19.528-1.19 1.18v8.247c0 .65.534 1.178 1.19 1.178h4.76c.656 0 1.19-.527 1.19-1.178V27.15c0-.652-.534-1.18-1.19-1.18z" fill="#9B5A50"/><path d="M38.07 40.11h-7.14c-.656 0-1.19-.527-1.19-1.178V33.04c0-.65.534-1.178 1.19-1.178h7.14c.656 0 1.19.528 1.19 1.178v5.892c0 .65-.534 1.178-1.19 1.178z" fill="#FFC36E"/><path d="M36.88 40.11h-4.76v-4.713c0-.65.533-1.178 1.19-1.178h2.38c.657 0 1.19.526 1.19 1.177v4.713z" fill="#FFD782"/><ellipse fill="#9B5A50" cx="34.5" cy="20.079" rx="2.379" ry="2.357"/></g></svg>